SplineFontDB: 3.0
FontName: pureBuster
FullName: pureBuster
FamilyName: pureBuster
Weight: Medium
Copyright: Created by Marcello Seri with FontForge 2.0 (http://fontforge.sf.net)
UComments: "2013-9-27: Created." 
Version: 001.000
ItalicAngle: 0
UnderlinePosition: -100.352
UnderlineWidth: 49.152
Ascent: 819
Descent: 205
LayerCount: 2
Layer: 0 0 "Back"  1
Layer: 1 0 "Fore"  0
XUID: [1021 280 1642691109 2054582]
FSType: 0
OS2Version: 0
OS2_WeightWidthSlopeOnly: 0
OS2_UseTypoMetrics: 1
CreationTime: 1380305282
ModificationTime: 1380311545
OS2TypoAscent: 0
OS2TypoAOffset: 1
OS2TypoDescent: 0
OS2TypoDOffset: 1
OS2TypoLinegap: 92
OS2WinAscent: 0
OS2WinAOffset: 1
OS2WinDescent: 0
OS2WinDOffset: 1
HheadAscent: 0
HheadAOffset: 1
HheadDescent: 0
HheadDOffset: 1
MarkAttachClasses: 1
DEI: 91125
Encoding: Custom
UnicodeInterp: none
NameList: Adobe Glyph List
DisplaySize: -24
AntiAlias: 1
FitToEm: 1
WinInfo: 92 23 9
BeginPrivate: 0
EndPrivate
BeginChars: 291 35

StartChar: uniE000
Encoding: 256 57344 0
Width: 1572
VWidth: 522
Flags: HW
LayerCount: 2
Fore
SplineSet
0 1475 m 1
 0 1160 l 1
 944 1160 l 1
 944 1475 l 1
 0 1475 l 1
0 1475 m 0
0 845 m 1
 0 531 l 1
 1573 531 l 1
 1573 845 l 1
 0 845 l 1
0 845 m 0
0 216 m 1
 0 -98 l 1
 629 -98 l 1
 629 216 l 1
 0 216 l 1
0 216 m 0
944 216 m 1
 944 -98 l 1
 1573 -98 l 1
 1573 216 l 1
 944 216 l 1
944 216 m 0
1258 1475 m 1
 1258 1160 l 1
 1573 1160 l 1
 1573 1475 l 1
 1258 1475 l 1
1258 1475 m 0
EndSplineSet
Validated: 9
EndChar

StartChar: uniF06C
Encoding: 257 61548 1
Width: 1832
VWidth: 1832
Flags: HW
HStem: 0 22G<118 138> 918 336<1022 1294>
VStem: 163 230<419 603> 1311 524<849 1068>
LayerCount: 2
Fore
SplineSet
1311 852 m 0
 1311 870 1304 885 1291 898 c 0
 1278 911 1263 918 1245 918 c 0
 1128 918 1020 901 920 867 c 0
 820 833 731 788 654 730 c 0
 577 672 496 597 413 505 c 0
 400 491 393 475 393 459 c 0
 393 441 400 426 413 413 c 0
 426 400 441 393 459 393 c 0
 475 393 491 400 505 413 c 0
 523 429 549 453 581 485 c 0
 613 517 635 540 649 553 c 0
 743 638 834 698 924 733 c 0
 1014 768 1121 786 1245 786 c 0
 1263 786 1278 793 1291 806 c 0
 1304 819 1311 834 1311 852 c 0
1835 1055 m 0
 1835 990 1829 924 1815 857 c 0
 1784 704 1721 574 1626 465 c 0
 1531 356 1410 264 1260 190 c 1
 1114 116 964 80 811 80 c 0
 710 80 612 96 518 128 c 0
 508 131 478 146 428 171 c 0
 378 196 346 209 330 209 c 0
 319 209 305 198 289 176 c 0
 273 154 258 130 243 104 c 0
 228 78 211 55 189 33 c 0
 167 11 148 0 128 0 c 0
 108 0 90 3 76 11 c 0
 62 19 51 27 44 36 c 0
 37 45 28 59 16 79 c 0
 15 82 13 85 10 90 c 0
 7 95 6 98 5 100 c 0
 4 102 3 106 2 110 c 0
 1 114 0 119 0 124 c 0
 0 148 10 173 32 199 c 0
 54 225 76 248 101 266 c 0
 126 284 149 304 171 324 c 0
 193 344 203 360 203 373 c 0
 203 376 198 389 188 412 c 0
 178 435 173 450 172 457 c 0
 166 492 163 527 163 563 c 0
 163 642 177 716 207 788 c 0
 237 860 277 923 329 977 c 0
 381 1031 439 1079 504 1120 c 0
 569 1161 639 1193 713 1218 c 0
 751 1230 800 1239 861 1244 c 0
 922 1249 985 1252 1046 1253 c 0
 1107 1254 1167 1255 1228 1258 c 0
 1289 1261 1344 1271 1395 1284 c 0
 1446 1297 1484 1316 1511 1341 c 1
 1542 1372 l 1
 1572 1400 l 1
 1599 1421 l 1
 1637 1437 l 1
 1681 1442 l 1
 1708 1442 1732 1426 1754 1395 c 0
 1776 1364 1791 1325 1802 1280 c 0
 1813 1235 1822 1193 1827 1153 c 0
 1832 1113 1835 1081 1835 1055 c 0
EndSplineSet
Validated: 1
EndChar

StartChar: uniF081
Encoding: 258 61569 2
Width: 1570
VWidth: 1832
Flags: HW
HStem: -131 328<431 759> 527 8<422 467> 1049 393<891 1084>
VStem: 0 304<801 995> 1204 369<647 836>
LayerCount: 2
Fore
SplineSet
1311 948 m 1
 1273 931 1231 919 1187 913 c 1
 1233 940 1265 980 1282 1033 c 1
 1238 1007 1192 990 1145 981 c 1
 1103 1026 1051 1049 988 1049 c 0
 929 1049 878 1028 836 986 c 0
 794 944 773 893 773 834 c 0
 773 814 775 797 778 784 c 1
 690 789 607 811 530 851 c 0
 453 891 388 944 334 1010 c 1
 314 976 304 939 304 901 c 0
 304 823 335 764 397 722 c 1
 365 723 331 732 295 749 c 1
 295 746 l 2
 295 695 312 650 346 610 c 0
 380 570 422 546 472 536 c 1
 452 531 435 527 420 527 c 0
 411 527 398 528 380 531 c 1
 394 488 419 453 456 425 c 0
 493 397 535 383 581 382 c 1
 502 321 412 290 313 290 c 0
 295 290 278 291 262 293 c 1
 363 230 473 197 592 197 c 0
 668 197 740 209 807 233 c 0
 874 257 931 289 979 330 c 0
 1027 371 1068 418 1102 471 c 0
 1136 524 1162 578 1179 636 c 0
 1196 694 1204 752 1204 809 c 0
 1204 821 1204 831 1203 837 c 1
 1246 868 1282 904 1311 948 c 1
1573 1147 m 2
 1573 164 l 2
 1573 83 1544 13 1486 -45 c 0
 1428 -103 1359 -131 1278 -131 c 2
 295 -131 l 2
 214 -131 145 -103 87 -45 c 0
 29 13 0 83 0 164 c 2
 0 1147 l 2
 0 1228 29 1297 87 1355 c 0
 145 1413 214 1442 295 1442 c 2
 1278 1442 l 2
 1359 1442 1428 1413 1486 1355 c 0
 1544 1297 1573 1228 1573 1147 c 2
EndSplineSet
Validated: 1
EndChar

StartChar: uniF082
Encoding: 259 61570 3
Width: 1570
VWidth: 1832
Flags: HW
HStem: -131 114<891 1159> 857 202<1172 1361> 1283 159<1038 1361>
VStem: 0 891<51 633 857 1131> 1159 414<51 633 857 1046> 1361 212<796 857 1059 1259>
LayerCount: 2
Fore
SplineSet
1338 633 m 5xf8
 1362 857 l 5
 1159 857 l 5
 1159 969 l 6xf8
 1159 1002 1164 1026 1175 1039 c 4
 1186 1052 1210 1059 1248 1059 c 6
 1361 1059 l 5
 1361 1283 l 5xf4
 1182 1283 l 6
 1078 1283 1003 1258 958 1209 c 4
 913 1160 891 1087 891 991 c 6
 891 857 l 5
 757 857 l 5
 757 633 l 5
 891 633 l 5
 891 -17 l 5
 1159 -17 l 5
 1159 633 l 5
 1338 633 l 5xf8
1573 1147 m 6xf4
 1573 164 l 6xf8
 1573 83 1544 13 1486 -45 c 4
 1428 -103 1359 -131 1278 -131 c 6
 295 -131 l 6
 214 -131 145 -103 87 -45 c 4
 29 13 0 83 0 164 c 6
 0 1147 l 6
 0 1228 29 1297 87 1355 c 4
 145 1413 214 1442 295 1442 c 6
 1278 1442 l 6
 1359 1442 1428 1413 1486 1355 c 4
 1544 1297 1573 1228 1573 1147 c 6xf4
EndSplineSet
Validated: 1
EndChar

StartChar: uniF08C
Encoding: 260 61580 4
Width: 1570
VWidth: 1832
Flags: HW
HStem: -131 256<244 479 609 846 1094 1329> 836 96<281 442> 852 590<952 1172> 1178 264<284 442>
VStem: 0 243<127 836> 0 228<984 1126> 479 130<125 836> 846 248<125 606> 1330 243<127 682>
LayerCount: 2
Fore
SplineSet
243 125 m 1xcb80
 479 125 l 1
 479 836 l 1
 243 836 l 1
 243 125 l 1xcb80
495 1055 m 0
 494 1090 482 1120 458 1143 c 0
 434 1166 402 1178 362 1178 c 0
 322 1178 291 1166 266 1143 c 0
 241 1120 228 1090 228 1055 c 0xd780
 228 1020 241 991 265 967 c 0
 289 943 320 932 359 932 c 2
 360 932 l 2
 400 932 433 943 458 967 c 0
 483 991 495 1020 495 1055 c 0
1094 125 m 1
 1330 125 l 1
 1330 532 l 2
 1330 637 1305 717 1255 771 c 0
 1205 825 1140 852 1058 852 c 0xa380
 965 852 894 812 844 732 c 1
 846 732 l 1
 846 836 l 1
 609 836 l 1
 611 791 611 554 609 125 c 1
 846 125 l 1
 846 522 l 2
 846 548 848 568 853 580 c 0
 863 604 879 624 899 641 c 0
 919 658 945 666 975 666 c 0
 1054 666 1094 611 1094 505 c 2
 1094 125 l 1
1573 1147 m 2
 1573 164 l 2
 1573 83 1544 13 1486 -45 c 0
 1428 -103 1359 -131 1278 -131 c 2
 295 -131 l 2
 214 -131 145 -103 87 -45 c 0
 29 13 0 83 0 164 c 2x9b80
 0 1147 l 2
 0 1228 29 1297 87 1355 c 0
 145 1413 214 1442 295 1442 c 2
 1278 1442 l 2x9780
 1359 1442 1428 1413 1486 1355 c 0
 1544 1297 1573 1228 1573 1147 c 2
EndSplineSet
Validated: 37
EndChar

StartChar: uniF092
Encoding: 261 61586 5
Width: 1570
VWidth: 1832
Flags: HW
HStem: -131 217<393 586> 154 24<553 586> 310 14<278 298> 1062 380<605 968>
VStem: 0 285<541 814> 429 33<157 179> 493 34<147 169> 1288 285<540 814>
LayerCount: 2
Fore
SplineSet
403 188 m 0
 398 182 391 183 383 191 c 1
 374 199 373 206 379 211 c 1
 384 217 391 216 399 208 c 0
 407 200 408 193 403 188 c 0
360 251 m 1
 366 243 366 236 360 231 c 0
 355 227 349 230 343 239 c 0
 337 248 337 254 343 257 c 1
 349 262 355 260 360 251 c 1
298 312 m 1
 295 307 290 307 285 310 c 0
 278 313 276 318 278 323 c 0
 280 326 284 327 291 325 c 1
 298 322 300 317 298 312 c 1
330 278 m 1
 326 273 320 274 313 281 c 1
 307 289 306 294 311 297 c 1
 315 301 321 300 328 294 c 1
 334 286 335 281 330 278 c 1
462 163 m 0
 459 155 452 153 442 157 c 1
 430 160 426 164 429 172 c 0
 432 180 439 182 449 179 c 0
 460 176 464 171 462 163 c 0
526 158 m 0
 526 150 521 146 510 146 c 1
 498 145 493 149 493 158 c 0
 493 166 498 169 509 169 c 1
 521 170 526 167 526 158 c 0
586 168 m 0
 587 161 582 157 571 154 c 0
 560 151 554 154 553 162 c 0
 552 170 556 175 567 177 c 0
 578 178 585 176 586 168 c 0
1573 1147 m 2
 1573 164 l 2
 1573 83 1544 13 1486 -45 c 0
 1428 -103 1359 -131 1278 -131 c 2
 1049 -131 l 2
 1038 -131 1029 -131 1023 -130 c 0
 1017 -129 1012 -128 1004 -125 c 0
 996 -122 990 -117 987 -110 c 0
 984 -103 982 -94 982 -82 c 2
 982 163 l 2
 982 229 964 277 929 308 c 1
 968 312 1003 319 1034 327 c 0
 1065 335 1097 349 1130 367 c 0
 1163 385 1191 408 1213 435 c 0
 1235 462 1253 497 1267 542 c 0
 1281 587 1288 638 1288 696 c 0
 1288 779 1261 849 1207 907 c 1
 1232 969 1230 1039 1199 1116 c 1
 1180 1122 1152 1119 1116 1105 c 0
 1080 1091 1049 1076 1022 1060 c 2
 983 1035 l 1
 920 1053 854 1062 786 1062 c 0
 718 1062 653 1053 590 1035 c 1
 579 1043 564 1052 546 1063 c 0
 528 1074 500 1087 461 1102 c 0
 422 1117 393 1122 373 1116 c 1
 343 1039 341 969 366 907 c 1
 312 849 285 779 285 696 c 0
 285 638 292 587 306 543 c 0
 320 499 337 462 359 435 c 0
 381 408 409 385 442 367 c 0
 475 349 507 335 538 327 c 0
 569 319 604 312 643 308 c 1
 616 283 599 249 593 203 c 1
 579 196 563 190 547 187 c 0
 531 184 511 182 488 182 c 0
 465 182 443 189 421 204 c 0
 399 219 381 240 365 268 c 0
 352 290 335 308 315 322 c 0
 295 336 278 343 264 346 c 2
 244 349 l 1
 230 349 219 348 214 345 c 0
 209 342 207 338 209 333 c 0
 211 328 214 323 218 318 c 0
 222 313 226 309 231 306 c 2
 239 301 l 1
 254 294 268 281 283 262 c 0
 298 243 308 226 315 210 c 2
 326 186 l 1
 335 160 349 139 371 123 c 0
 393 107 414 97 439 93 c 0
 464 89 487 86 510 86 c 0
 533 86 552 86 567 89 c 2
 591 93 l 1
 591 67 591 32 591 -12 c 0
 591 -56 592 -80 592 -82 c 0
 592 -97 589 -108 581 -116 c 0
 573 -124 566 -129 558 -130 c 0
 550 -131 539 -131 524 -131 c 2
 295 -131 l 2
 214 -131 145 -103 87 -45 c 0
 29 13 0 83 0 164 c 2
 0 1147 l 2
 0 1228 29 1297 87 1355 c 0
 145 1413 214 1442 295 1442 c 2
 1278 1442 l 2
 1359 1442 1428 1413 1486 1355 c 0
 1544 1297 1573 1228 1573 1147 c 2
EndSplineSet
Validated: 33
EndChar

StartChar: uniF099
Encoding: 262 61593 6
Width: 1701
VWidth: 1832
Flags: HW
HStem: 0 22G<460 611>
LayerCount: 2
Fore
SplineSet
1659 1155 m 1
 1613 1088 1558 1031 1493 984 c 1
 1494 974 1494 960 1494 941 c 0
 1494 852 1481 763 1455 675 c 0
 1429 587 1390 502 1337 421 c 0
 1284 340 1221 267 1148 205 c 0
 1075 143 987 93 884 56 c 0
 781 19 670 0 553 0 c 0
 368 0 199 49 45 148 c 1
 69 145 96 144 125 144 c 0
 279 144 416 192 536 286 c 1
 464 287 400 309 343 352 c 0
 286 395 248 449 226 515 c 1
 249 512 270 510 289 510 c 0
 318 510 347 513 376 521 c 1
 300 537 236 575 186 635 c 0
 136 695 111 766 111 846 c 2
 111 850 l 1
 157 824 207 810 260 808 c 1
 215 838 180 878 153 926 c 0
 126 974 113 1026 113 1083 c 0
 113 1143 128 1199 158 1250 c 1
 241 1148 341 1067 459 1006 c 0
 577 945 705 911 840 904 c 1
 835 930 831 955 831 980 c 0
 831 1071 863 1149 928 1214 c 0
 993 1279 1071 1311 1162 1311 c 0
 1258 1311 1338 1276 1404 1206 c 1
 1478 1220 1548 1247 1614 1286 c 1
 1589 1207 1540 1147 1468 1104 c 1
 1531 1111 1596 1128 1659 1155 c 1
EndSplineSet
Validated: 1
EndChar

StartChar: uniF09A
Encoding: 263 61594 7
Width: 784
VWidth: 1832
Flags: HW
HStem: 713 291<0 174 523 756> 1266 291<546 784>
VStem: 174 349<-131 713 1004 1240>
LayerCount: 2
Fore
SplineSet
523 1004 m 1
 786 1004 l 1
 756 713 l 1
 523 713 l 1
 523 -131 l 1
 174 -131 l 1
 174 713 l 1
 0 713 l 1
 0 1004 l 1
 174 1004 l 1
 174 1179 l 2
 174 1303 203 1398 262 1461 c 0
 321 1524 418 1556 552 1556 c 2
 784 1556 l 1
 784 1266 l 1
 639 1266 l 2
 612 1266 591 1262 575 1258 c 0
 559 1254 547 1247 540 1235 c 0
 533 1223 528 1212 526 1200 c 0
 524 1188 523 1171 523 1149 c 2
 523 1004 l 1
EndSplineSet
Validated: 1
EndChar

StartChar: uniF09B
Encoding: 264 61595 8
Width: 1570
VWidth: 1832
Flags: HW
HStem: -91 177<480 578> 1062 380<605 968>
VStem: 0 285<543 813> 1288 285<543 813>
LayerCount: 2
Fore
SplineSet
1573 655 m 0
 1573 484 1523 330 1423 193 c 0
 1323 56 1193 -38 1035 -91 c 1
 1017 -94 1004 -92 995 -84 c 0
 986 -76 982 -65 982 -53 c 2
 982 163 l 2
 982 229 964 277 929 308 c 1
 968 312 1003 319 1034 327 c 0
 1065 335 1097 349 1130 367 c 0
 1163 385 1191 408 1213 435 c 0
 1235 462 1253 497 1267 542 c 0
 1281 587 1288 638 1288 696 c 0
 1288 779 1261 849 1207 907 c 1
 1232 969 1230 1039 1199 1116 c 1
 1180 1122 1152 1119 1116 1105 c 0
 1080 1091 1049 1076 1022 1060 c 2
 983 1035 l 1
 920 1053 854 1062 786 1062 c 0
 718 1062 653 1053 590 1035 c 1
 579 1043 564 1052 546 1063 c 0
 528 1074 500 1087 461 1102 c 0
 422 1117 393 1122 373 1116 c 1
 343 1039 341 969 366 907 c 1
 312 849 285 779 285 696 c 0
 285 638 292 587 306 543 c 0
 320 499 337 462 359 435 c 0
 381 408 409 385 442 367 c 0
 475 349 507 335 538 327 c 0
 569 319 604 312 643 308 c 1
 616 283 599 249 593 203 c 1
 579 196 563 190 547 187 c 0
 531 184 511 182 488 182 c 0
 465 182 443 189 421 204 c 0
 399 219 381 240 365 268 c 0
 352 290 335 308 315 322 c 0
 295 336 278 343 264 346 c 2
 244 349 l 1
 230 349 219 348 214 345 c 0
 209 342 207 338 209 333 c 0
 211 328 214 323 218 318 c 0
 222 313 226 309 231 306 c 2
 239 301 l 1
 254 294 268 281 283 262 c 0
 298 243 308 226 315 210 c 2
 326 186 l 1
 335 160 349 139 371 123 c 0
 393 107 414 97 439 93 c 0
 464 89 487 86 510 86 c 0
 533 86 552 86 567 89 c 2
 591 93 l 1
 591 67 591 37 591 2 c 0
 591 -33 592 -51 592 -53 c 0
 592 -65 588 -76 579 -84 c 0
 570 -92 556 -94 538 -91 c 1
 380 -38 250 56 150 193 c 0
 50 330 0 484 0 655 c 0
 0 798 35 930 105 1050 c 0
 175 1170 272 1266 392 1336 c 0
 512 1406 643 1442 786 1442 c 0
 929 1442 1061 1406 1181 1336 c 0
 1301 1266 1397 1170 1467 1050 c 0
 1537 930 1573 798 1573 655 c 0
EndSplineSet
Validated: 33
EndChar

StartChar: uniF09E
Encoding: 265 61598 9
Width: 1439
VWidth: 1832
Flags: HW
HStem: 0 393<106 288>
VStem: 0 393<106 288>
LayerCount: 2
Fore
SplineSet
393 197 m 0
 393 142 374 95 336 57 c 0
 298 19 252 0 197 0 c 0
 142 0 95 19 57 57 c 0
 19 95 0 142 0 197 c 0
 0 252 19 298 57 336 c 0
 95 374 142 393 197 393 c 0
 252 393 298 374 336 336 c 0
 374 298 393 252 393 197 c 0
918 71 m 0
 919 52 913 36 900 22 c 1
 888 8 872 0 852 0 c 2
 714 0 l 2
 697 0 682 6 670 17 c 0
 658 28 650 42 649 59 c 0
 634 215 571 349 460 460 c 0
 349 571 215 634 59 649 c 0
 42 650 28 658 17 670 c 0
 6 682 0 697 0 714 c 2
 0 852 l 2
 0 872 8 888 22 900 c 1
 34 912 48 918 66 918 c 2
 71 918 l 1
 180 909 284 881 384 835 c 0
 484 789 572 727 649 649 c 1
 727 572 789 484 835 384 c 0
 881 284 909 180 918 71 c 0
1442 69 m 0
 1443 51 1437 34 1423 20 c 1
 1411 6 1395 0 1376 0 c 2
 1230 0 l 2
 1212 0 1197 6 1184 18 c 0
 1171 30 1165 44 1164 61 c 0
 1156 208 1122 348 1061 480 c 0
 1000 612 921 727 824 824 c 0
 727 921 612 1000 480 1061 c 0
 348 1122 208 1156 61 1165 c 0
 44 1166 30 1172 18 1185 c 0
 6 1198 0 1213 0 1230 c 2
 0 1376 l 2
 0 1395 6 1411 20 1423 c 1
 32 1435 48 1442 66 1442 c 2
 69 1442 l 1
 248 1433 419 1392 582 1319 c 0
 745 1246 891 1146 1018 1018 c 1
 1146 891 1246 745 1319 582 c 0
 1392 419 1433 248 1442 69 c 0
EndSplineSet
Validated: 33
EndChar

StartChar: uniF0C2
Encoding: 266 61634 10
Width: 1964
VWidth: 1832
Flags: HW
HStem: 0 1442<632 941> 0 1180<1337 1548>
LayerCount: 2
Fore
SplineSet
1966 393 m 0x40
 1966 284 1928 192 1851 115 c 0
 1774 38 1682 0 1573 0 c 2
 459 0 l 2x40
 333 0 225 45 135 135 c 0
 45 225 0 333 0 459 c 0
 0 549 25 631 73 706 c 0
 121 781 185 836 264 873 c 1
 263 892 262 908 262 918 c 0
 262 1063 314 1186 416 1288 c 0
 518 1390 641 1442 786 1442 c 0x80
 894 1442 992 1412 1080 1352 c 0
 1168 1292 1232 1213 1272 1116 c 1
 1320 1158 1376 1180 1442 1180 c 0
 1514 1180 1576 1154 1627 1103 c 0
 1678 1052 1704 990 1704 918 c 0
 1704 867 1690 819 1662 776 c 1
 1750 756 1823 709 1880 638 c 0
 1937 567 1966 485 1966 393 c 0x40
EndSplineSet
Validated: 1
EndChar

StartChar: uniF0D4
Encoding: 267 61652 11
Width: 1570
VWidth: 1832
Flags: HW
HStem: -131 371<219 455> 301 236<195 329> 1311 131<248 885 1180 1308>
VStem: 0 330<369 536> 98 473<856 977> 761 157<919 1048> 1311 262<655 918 1049 1259>
LayerCount: 2
Fore
SplineSet
694 -58 m 0xe6
 694 -84 691 -108 684 -131 c 1
 295 -131 l 2
 230 -131 171 -112 119 -73 c 0
 67 -34 31 16 13 78 c 1
 29 109 53 135 84 157 c 0
 115 179 148 196 186 208 c 0
 224 220 261 227 296 232 c 0
 331 237 368 240 406 240 c 0
 428 240 444 239 456 238 c 1
 460 235 470 228 487 216 c 0
 504 204 515 197 521 193 c 0
 527 189 537 181 552 169 c 0
 567 157 579 149 585 143 c 0
 591 137 601 129 613 117 c 0
 625 105 635 96 641 87 c 0
 647 78 653 67 662 55 c 0
 671 43 677 31 680 20 c 0
 683 9 687 -4 690 -17 c 0
 693 -30 694 -44 694 -58 c 0xe6
394 301 m 1
 234 296 103 267 0 214 c 1
 0 657 l 1
 70 576 164 537 280 537 c 0
 302 537 325 539 351 542 c 1
 337 500 330 471 330 454 c 0xf6
 330 408 351 357 394 301 c 1
571 824 m 0xee
 571 756 557 701 527 660 c 0
 497 619 449 598 383 598 c 0
 348 598 315 607 284 625 c 0
 253 643 226 666 204 694 c 0
 182 722 162 755 146 790 c 0
 130 825 118 861 110 896 c 0
 102 931 98 965 98 997 c 0
 98 1063 116 1119 151 1166 c 0
 186 1213 236 1237 299 1237 c 0
 344 1237 385 1223 421 1195 c 0
 457 1167 485 1132 507 1089 c 0
 529 1046 544 1001 555 955 c 0
 566 909 571 866 571 824 c 0xee
1573 918 m 1
 1573 164 l 2
 1573 83 1544 13 1486 -45 c 0
 1428 -103 1359 -131 1278 -131 c 2
 799 -131 l 1
 826 -81 839 -27 839 30 c 0
 839 75 831 116 816 155 c 0
 801 194 782 225 759 250 c 0
 736 275 712 299 686 323 c 0
 660 347 635 367 612 384 c 0
 589 401 570 420 555 440 c 0
 540 460 532 481 532 501 c 0
 532 526 540 548 556 570 c 0
 572 592 590 613 613 633 c 0
 636 653 658 675 680 699 c 0
 702 723 721 755 737 795 c 0
 753 835 761 879 761 929 c 0
 761 979 752 1029 734 1078 c 0
 716 1127 689 1168 656 1199 c 0
 652 1203 647 1207 642 1210 c 0
 637 1213 632 1216 629 1218 c 0
 626 1220 622 1223 618 1228 c 0
 614 1233 611 1238 608 1245 c 1
 746 1245 l 1
 885 1311 l 1
 437 1311 l 2
 343 1311 260 1297 187 1271 c 0
 114 1245 52 1200 0 1135 c 1xf6
 0 1221 28 1294 83 1353 c 0
 138 1412 209 1442 295 1442 c 2
 1278 1442 l 2
 1359 1442 1428 1413 1486 1355 c 0
 1544 1297 1573 1228 1573 1147 c 2
 1573 1049 l 1
 1311 1049 l 1
 1311 1311 l 1
 1180 1311 l 1
 1180 1049 l 1
 918 1049 l 1
 918 918 l 1
 1180 918 l 1
 1180 655 l 1
 1311 655 l 1
 1311 918 l 1
 1573 918 l 1
EndSplineSet
Validated: 1
EndChar

StartChar: uniF0D5
Encoding: 268 61653 12
Width: 1701
VWidth: 1832
Flags: HW
HStem: -262 94<419 671> 371 61<424 597> 668 61<494 554> 1049 131<1049 1311 1442 1704> 1361 81<811 949> 1368 74<444 591>
VStem: 0 189<6 160> 112 189<990 1149> 531 203<571 672> 774 189<927 1105> 897 144<38 172> 1311 131<786 1049 1180 1442>
LayerCount: 2
Fore
SplineSet
897 73 m 0xf2b0
 897 87 895 101 892 114 c 0
 889 127 886 140 883 151 c 0
 880 162 874 174 865 186 c 0
 856 198 849 209 843 218 c 0
 837 227 828 236 816 248 c 0
 804 260 794 268 788 274 c 0
 782 280 770 288 755 300 c 0
 740 312 729 320 723 324 c 0
 717 328 707 335 690 347 c 0
 673 359 662 366 658 369 c 1
 646 370 630 371 607 371 c 0
 570 371 534 369 499 364 c 0
 464 359 426 350 388 338 c 0
 350 326 317 310 288 291 c 0
 259 272 235 246 217 214 c 0
 199 182 189 145 189 104 c 0
 189 58 202 17 226 -20 c 0
 250 -57 282 -84 321 -106 c 0
 360 -128 401 -143 444 -153 c 0
 487 -163 530 -168 574 -168 c 0
 614 -168 653 -164 690 -155 c 0
 727 -146 761 -133 793 -115 c 0
 825 -97 850 -72 869 -40 c 0
 888 -8 897 30 897 73 c 0xf2b0
774 955 m 0xf5d0
 774 996 768 1040 757 1086 c 0
 746 1132 731 1177 709 1220 c 0
 687 1263 660 1298 623 1326 c 0
 586 1354 546 1368 501 1368 c 0
 438 1368 388 1344 353 1297 c 0
 318 1250 301 1194 301 1128 c 0
 301 1096 305 1062 313 1027 c 0
 321 992 333 956 349 921 c 0
 365 886 385 853 407 825 c 0
 429 797 455 774 486 756 c 0
 517 738 551 729 586 729 c 0
 652 729 700 750 730 791 c 0
 760 832 774 887 774 955 c 0xf5d0
640 1442 m 2
 1087 1442 l 1xf590
 949 1361 l 1
 811 1361 l 1
 859 1330 897 1287 924 1232 c 0
 951 1177 964 1119 964 1059 c 0xf9d0
 964 1008 956 963 940 924 c 0
 924 885 906 853 883 829 c 0
 860 805 838 783 815 763 c 0
 792 743 774 723 758 701 c 0
 742 679 734 657 734 632 c 0
 734 614 740 597 751 580 c 0
 762 563 777 546 795 530 c 0
 813 514 833 498 855 481 c 0
 877 464 899 446 921 424 c 0
 943 402 962 381 980 357 c 0
 998 333 1014 304 1025 270 c 0
 1036 236 1041 200 1041 161 c 0
 1041 52 994 -45 898 -128 c 1
 794 -217 651 -262 468 -262 c 0
 428 -262 387 -259 346 -252 c 0
 305 -245 263 -234 221 -218 c 0
 179 -202 142 -182 110 -158 c 0
 78 -134 51 -104 31 -67 c 0
 11 -30 0 11 0 57 c 0xfab0
 0 99 13 145 38 196 c 0
 60 240 92 277 136 309 c 0
 180 341 230 364 285 381 c 0
 340 398 392 410 443 418 c 0
 494 426 545 431 597 432 c 1
 553 489 531 540 531 585 c 0
 531 593 533 601 534 609 c 0
 535 617 537 624 539 629 c 0
 541 634 544 642 547 651 c 0
 550 660 553 668 554 673 c 1
 527 670 502 668 482 668 c 0
 380 668 294 701 221 768 c 0
 148 835 112 919 112 1020 c 0
 112 1116 144 1201 209 1276 c 0
 274 1351 354 1399 449 1421 c 0
 512 1435 577 1442 640 1442 c 2
1704 1180 m 1
 1704 1049 l 1
 1442 1049 l 1
 1442 786 l 1
 1311 786 l 1
 1311 1049 l 1
 1049 1049 l 1
 1049 1180 l 1
 1311 1180 l 1
 1311 1442 l 1
 1442 1442 l 1
 1442 1180 l 1
 1704 1180 l 1
EndSplineSet
Validated: 1
EndChar

StartChar: uniF0E1
Encoding: 269 61665 13
Width: 1570
VWidth: 1832
Flags: HW
HStem: 690 266<1049 1243> 1071 350<92 287>
VStem: 0 379<1158 1333> 19 338<-82 933> 544 337<-82 589 785 933> 1236 337<-82 586>
LayerCount: 2
Fore
SplineSet
357 933 m 1xdc
 357 -82 l 1
 19 -82 l 1
 19 933 l 1
 357 933 l 1xdc
379 1246 m 0xec
 380 1196 362 1154 327 1121 c 0
 292 1088 245 1071 188 1071 c 2
 186 1071 l 2
 130 1071 85 1088 51 1121 c 0
 17 1154 0 1196 0 1246 c 0
 0 1297 18 1339 53 1372 c 0
 88 1405 133 1421 190 1421 c 0
 247 1421 293 1405 327 1372 c 0
 361 1339 378 1297 379 1246 c 0xec
1573 500 m 2
 1573 -82 l 1
 1236 -82 l 1
 1236 461 l 2
 1236 533 1222 588 1194 629 c 0
 1166 670 1124 690 1065 690 c 0
 1022 690 986 679 957 655 c 0
 928 631 906 602 892 567 c 1
 884 547 881 519 881 484 c 2
 881 -82 l 1
 544 -82 l 1
 545 190 546 412 546 581 c 0
 546 750 546 851 545 884 c 2
 544 933 l 1
 881 933 l 1
 881 785 l 1
 879 785 l 1
 893 807 907 827 921 843 c 0
 935 859 954 877 978 896 c 0
 1002 915 1033 930 1068 941 c 0
 1103 952 1142 956 1185 956 c 0
 1302 956 1395 917 1466 840 c 0
 1537 763 1573 650 1573 500 c 2
EndSplineSet
Validated: 37
EndChar

StartChar: uniF0EB
Encoding: 270 61675 14
Width: 1046
VWidth: 1832
Flags: HW
HStem: -131 557<442 607> 1081 66<501 626> 1311 131<385 663>
VStem: 0 131<874 1094> 262 524<3 113> 688 66<952 1033> 918 131<874 1093>
LayerCount: 2
Fore
SplineSet
754 983 m 0xf6
 754 974 750 967 744 961 c 0
 738 955 730 950 721 950 c 0
 712 950 704 955 698 961 c 0
 692 967 688 974 688 983 c 0
 688 1014 670 1039 633 1056 c 0
 596 1073 559 1081 524 1081 c 0
 515 1081 507 1085 501 1091 c 0
 495 1097 492 1105 492 1114 c 0
 492 1123 495 1131 501 1137 c 0
 507 1143 515 1147 524 1147 c 0
 558 1147 592 1141 626 1130 c 0
 660 1119 689 1101 715 1075 c 0
 741 1049 754 1018 754 983 c 0xf6
918 983 m 0
 918 1032 906 1078 882 1120 c 0
 858 1162 828 1197 790 1224 c 0
 752 1251 710 1273 664 1288 c 0
 618 1303 571 1311 524 1311 c 0
 477 1311 431 1303 385 1288 c 0
 339 1273 297 1251 259 1224 c 0
 221 1197 190 1162 166 1120 c 0
 142 1078 131 1032 131 983 c 0
 131 914 155 853 201 799 c 0
 208 791 218 780 232 765 c 0
 246 750 256 739 263 731 c 0
 350 627 399 525 408 426 c 1
 641 426 l 1
 650 525 698 627 785 731 c 0
 792 739 803 750 817 765 c 0
 831 780 841 791 848 799 c 0
 894 853 918 914 918 983 c 0
1049 983 m 0
 1049 877 1013 786 943 709 c 0
 912 676 887 646 867 620 c 0
 847 594 826 561 806 522 c 0
 786 483 774 446 771 412 c 1
 803 393 819 365 819 328 c 0
 819 303 811 280 794 262 c 1
 811 244 819 222 819 197 c 0
 819 162 804 134 773 114 c 1
 782 98 786 82 786 66 c 0xfa
 786 35 776 10 754 -7 c 0xf6
 732 -24 706 -33 675 -33 c 1
 661 -63 640 -86 613 -104 c 0
 586 -122 556 -131 524 -131 c 0
 492 -131 462 -122 435 -104 c 0
 408 -86 388 -63 374 -33 c 1
 343 -33 316 -24 294 -7 c 0
 272 10 262 35 262 66 c 0xfa
 262 82 266 98 275 114 c 1
 244 134 229 162 229 197 c 0
 229 222 238 244 255 262 c 1
 238 280 229 303 229 328 c 0
 229 365 246 393 278 412 c 1
 275 446 263 483 243 522 c 0
 223 561 202 594 182 620 c 0
 162 646 136 676 105 709 c 0
 35 786 0 877 0 983 c 0
 0 1051 16 1114 46 1172 c 0
 76 1230 116 1278 165 1317 c 0
 214 1356 271 1387 333 1409 c 0
 395 1431 459 1442 524 1442 c 0
 589 1442 653 1431 715 1409 c 0
 777 1387 834 1356 883 1317 c 0
 932 1278 972 1230 1002 1172 c 0
 1032 1114 1049 1051 1049 983 c 0
EndSplineSet
Validated: 1
EndChar

StartChar: uniF113
Encoding: 271 61715 15
Width: 1701
VWidth: 1832
Flags: HW
HStem: -128 94<528 1176> 590 590<619 1096>
VStem: 0 229<289 589> 112 1481<934 1142> 393 262<217 438> 406 238<194 326 329 461> 1049 262<217 438> 1061 238<194 326 329 461> 1475 229<285 589>
LayerCount: 2
Fore
SplineSet
655 328 m 0xc8
 655 301 652 273 643 244 c 0
 634 215 621 189 599 166 c 0
 577 143 553 131 524 131 c 0
 495 131 472 143 450 166 c 0
 428 189 415 215 406 244 c 0xc4
 397 273 393 301 393 328 c 0xc8
 393 355 397 383 406 412 c 0
 415 441 428 466 450 489 c 0
 472 512 495 524 524 524 c 0
 553 524 577 512 599 489 c 0
 621 466 634 441 643 412 c 0xc4
 652 383 655 355 655 328 c 0xc8
1311 328 m 0xc2
 1311 301 1307 273 1298 244 c 0
 1289 215 1276 189 1254 166 c 0
 1232 143 1209 131 1180 131 c 0
 1151 131 1127 143 1105 166 c 0
 1083 189 1070 215 1061 244 c 0xc1
 1052 273 1049 301 1049 328 c 0xc2
 1049 355 1052 383 1061 412 c 0
 1070 441 1083 466 1105 489 c 0
 1127 512 1151 524 1180 524 c 0
 1209 524 1232 512 1254 489 c 0
 1276 466 1289 441 1298 412 c 0xc1
 1307 383 1311 355 1311 328 c 0xc2
1475 328 m 0xe080
 1475 410 1451 480 1404 537 c 0
 1357 594 1293 623 1212 623 c 0
 1184 623 1118 615 1013 601 c 1
 965 593 911 590 852 590 c 0
 793 590 739 593 691 601 c 1
 587 615 521 623 492 623 c 0
 411 623 347 594 300 537 c 0
 253 480 229 410 229 328 c 0
 229 268 240 215 262 170 c 0
 284 125 312 91 345 65 c 0
 378 39 420 19 470 4 c 0
 520 -11 567 -22 613 -27 c 0
 659 -32 710 -34 766 -34 c 2
 938 -34 l 2
 994 -34 1045 -32 1091 -27 c 0
 1137 -22 1184 -11 1234 4 c 0
 1284 19 1326 39 1359 65 c 0
 1392 91 1420 125 1442 170 c 0
 1464 215 1475 268 1475 328 c 0xe080
1704 508 m 0
 1704 367 1683 254 1641 169 c 0
 1615 116 1579 71 1533 33 c 0
 1487 -5 1439 -35 1389 -55 c 0
 1339 -75 1281 -92 1215 -104 c 0
 1149 -116 1090 -123 1039 -126 c 0
 988 -129 931 -131 868 -131 c 0
 815 -131 767 -130 723 -128 c 0
 679 -126 629 -121 572 -115 c 0
 515 -109 463 -98 416 -84 c 0
 369 -70 321 -54 275 -32 c 0
 229 -10 188 17 152 51 c 0
 116 85 86 125 63 169 c 0
 21 253 0 366 0 508 c 0xe080
 0 670 46 804 139 913 c 1
 121 969 112 1027 112 1087 c 0
 112 1166 129 1241 164 1311 c 1
 238 1311 302 1297 358 1270 c 0
 414 1243 479 1201 552 1144 c 1
 652 1168 757 1180 868 1180 c 0
 969 1180 1065 1169 1155 1147 c 1
 1227 1203 1291 1244 1347 1271 c 0
 1403 1298 1467 1311 1540 1311 c 1
 1575 1241 1592 1166 1592 1087 c 0xd0
 1592 1028 1583 970 1565 915 c 1
 1658 806 1704 670 1704 508 c 0
EndSplineSet
Validated: 1
EndChar

StartChar: uniE004
Encoding: 272 57348 16
Width: 1570
VWidth: 1832
Flags: HW
HStem: -131 262<320 467 689 883 1082 1276> 1146 296<265 475>
VStem: 0 262<189 335 558 752 951 1145> 1277 296<134 344>
LayerCount: 2
Fore
SplineSet
524 262 m 0
 524 298 512 329 486 355 c 0
 460 381 429 393 393 393 c 0
 357 393 327 381 301 355 c 0
 275 329 262 298 262 262 c 0
 262 226 275 195 301 169 c 0
 327 143 357 131 393 131 c 0
 429 131 460 143 486 169 c 0
 512 195 524 226 524 262 c 0
884 166 m 0
 875 324 814 459 702 571 c 0
 590 683 455 744 297 753 c 0
 287 754 279 750 272 743 c 0
 265 736 262 729 262 720 c 2
 262 589 l 2
 262 580 265 572 271 566 c 0
 277 560 284 557 293 556 c 0
 398 548 488 507 563 432 c 0
 638 357 679 267 687 162 c 0
 688 153 691 146 697 140 c 0
 703 134 711 131 720 131 c 2
 851 131 l 2
 860 131 867 134 874 141 c 0
 881 148 885 156 884 166 c 0
1277 165 m 1
 1274 270 1255 372 1220 470 c 0
 1185 568 1137 656 1077 736 c 0
 1017 816 947 886 867 946 c 0
 787 1006 699 1054 601 1089 c 0
 503 1124 401 1143 296 1146 c 0
 286 1147 278 1144 272 1137 c 0
 265 1130 262 1122 262 1113 c 2
 262 982 l 2
 262 973 265 965 271 959 c 0
 277 953 285 950 294 949 c 0
 433 944 562 906 681 835 c 0
 800 764 895 669 966 550 c 0
 1037 431 1075 302 1080 163 c 0
 1081 154 1085 146 1091 140 c 0
 1097 134 1104 131 1113 131 c 2
 1244 131 l 2
 1253 131 1261 134 1268 141 c 1
 1276 147 1278 155 1277 165 c 1
1573 1147 m 2
 1573 164 l 2
 1573 83 1544 13 1486 -45 c 0
 1428 -103 1359 -131 1278 -131 c 2
 295 -131 l 2
 214 -131 145 -103 87 -45 c 0
 29 13 0 83 0 164 c 2
 0 1147 l 2
 0 1228 29 1297 87 1355 c 0
 145 1413 214 1442 295 1442 c 2
 1278 1442 l 2
 1359 1442 1428 1413 1486 1355 c 0
 1544 1297 1573 1228 1573 1147 c 2
EndSplineSet
Validated: 1
EndChar

StartChar: uniF166
Encoding: 273 61798 17
Width: 1570
VWidth: 1832
Flags: HW
HStem: -131 114<508 1065> 126 62<602 657 896 956 1134 1194> 307 56<1129 1197> 451 61<895 956 1134 1192> 564 72<307 387 463 545> 767 69<702 838> 1214 227<701 840 929 997 1058 1126> 1345 97<406 485 592 669>
VStem: 0 223<102 648> 387 76<131 564> 555 68<189 507> 577 93<868 1065> 682 69<131 172 196 507> 738 66<895 1156> 809 69<131 168 190 449 471 636> 872 56<869 1182> 941 68<190 449> 997 60<901 1214> 1062 68<192 307 364 448> 1126 446<836 1212> 1197 69<190 261 364 448> 1350 223<102 652>
LayerCount: 2
Fore
SplineSet
941 239 m 2xfcc280
 941 399 l 2
 941 433 931 451 911 451 c 0
 899 451 889 445 878 434 c 1
 878 205 l 1
 889 194 899 188 911 188 c 0
 931 188 941 206 941 239 c 2xfcc280
1129 364 m 1xfcc028
 1197 364 l 1
 1197 398 l 2
 1197 433 1186 451 1163 451 c 0
 1140 451 1129 433 1129 398 c 2
 1129 364 l 1xfcc028
545 636 m 1
 545 564 l 1
 463 564 l 1
 463 131 l 1
 387 131 l 1
 387 564 l 1
 307 564 l 1
 307 636 l 1
 545 636 l 1
751 507 m 1xfce8
 751 131 l 1
 682 131 l 1
 682 172 l 1
 655 141 629 126 604 126 c 0
 581 126 567 136 561 155 c 0
 557 166 555 184 555 210 c 2
 555 507 l 1
 623 507 l 1
 623 230 l 2
 623 214 623 205 624 204 c 0
 625 194 629 188 639 188 c 0
 653 188 667 198 682 220 c 1
 682 507 l 1
 751 507 l 1xfce8
1009 393 m 2xfcc280
 1009 244 l 2
 1009 209 1006 183 1001 169 c 0
 993 140 975 126 947 126 c 0
 923 126 901 140 878 168 c 1
 878 131 l 1
 809 131 l 1
 809 636 l 1
 878 636 l 1
 878 471 l 1
 900 498 922 512 947 512 c 0
 975 512 993 498 1001 469 c 0
 1006 455 1009 429 1009 393 c 2xfcc280
1266 261 m 1xfcc028
 1266 252 l 2
 1266 232 1265 218 1264 208 c 0
 1262 193 1256 179 1248 167 c 0
 1230 140 1202 126 1166 126 c 0
 1131 126 1103 139 1083 165 c 0
 1069 183 1062 213 1062 253 c 2
 1062 385 l 2
 1062 425 1068 455 1082 473 c 0
 1102 499 1129 512 1164 512 c 0
 1199 512 1226 499 1244 473 c 0
 1258 454 1266 425 1266 385 c 2
 1266 307 l 1
 1129 307 l 1
 1129 241 l 2
 1129 206 1141 188 1164 188 c 0
 1180 188 1191 197 1195 215 c 0
 1195 216 1196 218 1196 222 c 0
 1196 226 1196 232 1196 239 c 2
 1196 261 l 1
 1266 261 l 1xfcc028
804 1105 m 2xfcc4
 804 945 l 2
 804 910 793 893 771 893 c 0
 749 893 738 910 738 945 c 2
 738 1105 l 2
 738 1140 749 1158 771 1158 c 0
 793 1158 804 1140 804 1105 c 2xfcc4
1350 375 m 0xfcc004
 1350 496 1343 584 1330 641 c 0
 1323 671 1309 696 1286 716 c 0
 1263 736 1237 749 1208 752 c 0
 1115 762 974 767 786 767 c 0
 598 767 459 762 366 752 c 0
 336 749 309 736 287 716 c 0
 265 696 251 671 244 641 c 0
 230 582 223 493 223 375 c 0
 223 255 230 166 244 109 c 0
 251 80 265 54 287 34 c 0
 309 14 336 1 365 -2 c 0
 459 -12 598 -17 786 -17 c 0
 974 -17 1114 -12 1208 -2 c 0
 1237 1 1264 14 1286 34 c 0
 1308 54 1322 80 1329 109 c 0
 1343 166 1350 255 1350 375 c 0xfcc004
577 1041 m 1xfdd0
 669 1345 l 1
 592 1345 l 1
 540 1145 l 1
 485 1345 l 1
 406 1345 l 1
 430 1274 l 1
 454 1203 l 2
 478 1133 493 1079 501 1041 c 1
 501 836 l 1
 577 836 l 1
 577 1041 l 1xfdd0
872 958 m 2xfcd1
 872 1092 l 2
 872 1132 865 1161 851 1181 c 0
 831 1207 804 1220 771 1220 c 0
 736 1220 709 1207 691 1181 c 0
 677 1161 670 1132 670 1092 c 2
 670 958 l 2
 670 918 677 889 691 869 c 0
 709 843 736 830 771 830 c 0
 804 830 831 843 851 869 c 0
 865 887 872 917 872 958 c 2xfcd1
1058 836 m 1xfec150
 1126 836 l 1
 1126 1214 l 1
 1058 1214 l 1
 1058 925 l 1
 1043 903 1029 893 1015 893 c 0
 1005 893 999 898 998 909 c 0
 997 910 997 920 997 936 c 2
 997 1214 l 1
 929 1214 l 1
 929 914 l 2
 929 889 931 870 935 858 c 1
 943 840 957 830 979 830 c 0
 1004 830 1030 846 1058 877 c 1
 1058 836 l 1xfec150
1573 1147 m 2
 1573 164 l 2
 1573 83 1544 13 1486 -45 c 0
 1428 -103 1359 -131 1278 -131 c 2
 295 -131 l 2
 214 -131 145 -103 87 -45 c 0
 29 13 0 83 0 164 c 2
 0 1147 l 2
 0 1228 29 1297 87 1355 c 0
 145 1413 214 1442 295 1442 c 2
 1278 1442 l 2xfdc004
 1359 1442 1428 1413 1486 1355 c 0
 1544 1297 1573 1228 1573 1147 c 2
EndSplineSet
Validated: 1
EndChar

StartChar: uniF167
Encoding: 274 61799 18
Width: 1570
VWidth: 1832
Flags: HW
HStem: 14 160<1257 1332> 114 60<1338 1432> 251 117<1257 1332> 617 177<446 461 817 900> 880 84<730 800 1031 1107> 1321 83<730 800>
VStem: 351 123<-54 444> 401 102<887 1188> 565 81<32 444> 629 92<970 1314> 737 80<-61 444> 809 93<970 1314> 908 86<20 362> 978 93<964 1398> 1085 72<-5 388> 1152 93<887 943 982 1398> 1248 90<22 114 251 361> 1432 114<-11 114 174 386>
LayerCount: 2
Fore
SplineSet
994 299 m 2xbc08c0
 994 83 l 2
 994 37 981 14 954 14 c 0
 938 14 923 22 908 37 c 1
 908 345 l 1
 923 360 938 368 954 368 c 0
 981 368 994 345 994 299 c 2xbc08c0
1340 298 m 2
 1340 251 l 1
 1248 251 l 1
 1248 298 l 2
 1248 344 1263 368 1294 368 c 0
 1325 368 1340 344 1340 298 c 2
351 521 m 1x3e00c0
 461 521 l 1
 461 617 l 1
 141 617 l 1
 141 521 l 1
 249 521 l 1
 249 -61 l 1
 351 -61 l 1
 351 521 l 1x3e00c0
646 -61 m 1xbea0c0
 737 -61 l 1
 737 444 l 1
 646 444 l 1
 646 57 l 1
 626 28 606 14 588 14 c 0
 576 14 568 22 566 36 c 0
 565 38 565 50 565 72 c 2
 565 444 l 1
 474 444 l 1
 474 44 l 2
 474 11 477 -15 482 -31 c 0
 490 -56 511 -69 542 -69 c 0
 575 -69 609 -48 646 -6 c 1
 646 -61 l 1xbea0c0
1085 90 m 2x3c2ac0
 1085 292 l 2
 1085 342 1082 375 1076 393 c 1
 1064 431 1041 451 1004 451 c 0
 970 451 937 432 908 395 c 1
 908 617 l 1
 817 617 l 1
 817 -61 l 1
 908 -61 l 1
 908 -12 l 1
 939 -50 971 -69 1004 -69 c 0
 1041 -69 1064 -50 1076 -12 c 0
 1082 6 1085 40 1085 90 c 2x3c2ac0
1432 100 m 2
 1432 114 l 1
 1338 114 l 1x7c02c0
 1338 79 1337 58 1336 51 c 0
 1331 26 1318 14 1295 14 c 0xbc02c0
 1264 14 1248 38 1248 85 c 2
 1248 174 l 1
 1432 174 l 1x7c02c0
 1432 280 l 2
 1432 334 1422 373 1404 398 c 1
 1377 433 1341 451 1295 451 c 0
 1249 451 1213 433 1186 398 c 0
 1167 373 1157 334 1157 280 c 2
 1157 102 l 2
 1157 48 1167 9 1187 -16 c 0
 1214 -51 1250 -69 1297 -69 c 0
 1346 -69 1383 -50 1408 -14 c 0
 1420 4 1428 23 1430 41 c 0
 1431 47 1432 67 1432 100 c 2
809 1035 m 2x3c50c0
 809 1250 l 2
 809 1297 794 1321 765 1321 c 0
 736 1321 721 1297 721 1250 c 2
 721 1035 l 2
 721 987 736 964 765 964 c 0
 794 964 809 987 809 1035 c 2x3c50c0
1545 266 m 0
 1545 106 1537 -13 1519 -92 c 0
 1509 -132 1489 -167 1459 -194 c 0
 1429 -221 1395 -237 1355 -241 c 0
 1229 -255 1039 -262 786 -262 c 0
 533 -262 344 -255 218 -241 c 0
 178 -237 143 -221 113 -194 c 0
 83 -167 63 -132 54 -92 c 0
 36 -16 28 104 28 266 c 0
 28 426 36 546 54 625 c 0
 64 665 84 699 114 726 c 0
 144 753 179 769 219 774 c 0
 344 788 533 795 786 795 c 0
 1039 795 1229 788 1355 774 c 0
 1395 769 1430 753 1460 726 c 0
 1490 699 1510 665 1519 625 c 0
 1537 549 1545 428 1545 266 c 0
523 1573 m 1
 628 1573 l 1
 504 1164 l 1
 504 887 l 1
 401 887 l 1
 401 1164 l 1x3d00c0
 391 1215 371 1287 339 1381 c 1
 314 1451 291 1516 272 1573 c 1
 381 1573 l 1
 454 1304 l 1
 523 1573 l 1
902 1232 m 2x3c50c0
 902 1053 l 2
 902 998 892 957 873 932 c 0
 848 897 812 880 765 880 c 0
 719 880 683 897 657 932 c 0
 638 958 629 998 629 1053 c 2
 629 1232 l 2
 629 1287 638 1327 657 1352 c 0
 683 1387 719 1404 765 1404 c 0
 812 1404 848 1387 873 1352 c 0
 892 1327 902 1287 902 1232 c 2x3c50c0
1245 1398 m 1x3c05c0
 1245 887 l 1
 1152 887 l 1
 1152 943 l 1
 1116 901 1081 880 1047 880 c 0
 1016 880 995 893 986 918 c 0
 981 934 978 959 978 994 c 2
 978 1398 l 1
 1071 1398 l 1
 1071 1022 l 2
 1071 999 1071 987 1072 986 c 0
 1074 971 1082 964 1094 964 c 0
 1112 964 1132 979 1152 1008 c 1
 1152 1398 l 1
 1245 1398 l 1x3c05c0
EndSplineSet
Validated: 1
EndChar

StartChar: uniF16B
Encoding: 275 61803 19
Width: 1832
VWidth: 1832
Flags: HW
VStem: 918 2<-131 -130 473 475>
LayerCount: 2
Fore
SplineSet
412 849 m 1
 918 537 l 1
 567 245 l 1
 66 571 l 1
 412 849 l 1
1421 281 m 1
 1421 170 l 1
 920 -130 l 1
 920 -131 l 1
 919 -130 l 1
 918 -131 l 1
 918 -130 l 1
 417 170 l 1
 417 281 l 1
 567 182 l 1
 918 473 l 1
 918 475 l 1
 919 474 l 1
 920 475 l 1
 920 473 l 1
 1271 182 l 1
 1421 281 l 1
567 1452 m 1
 918 1160 l 1
 412 849 l 1
 66 1125 l 1
 567 1452 l 1
1423 849 m 1
 1769 571 l 1
 1269 245 l 1
 918 537 l 1
 1423 849 l 1
1269 1452 m 1
 1769 1125 l 1
 1423 849 l 1
 918 1160 l 1
 1269 1452 l 1
EndSplineSet
Validated: 5
EndChar

StartChar: uniF16E
Encoding: 276 61806 20
Width: 1570
VWidth: 1832
Flags: HW
VStem: 0 281<560 751> 715 143<560 751> 1292 281<560 751>
CounterMasks: 1 e0
LayerCount: 2
Fore
SplineSet
1278 1442 m 2
 1359 1442 1428 1413 1486 1355 c 0
 1544 1297 1573 1228 1573 1147 c 2
 1573 164 l 2
 1573 83 1544 13 1486 -45 c 0
 1428 -103 1359 -131 1278 -131 c 2
 295 -131 l 2
 214 -131 145 -103 87 -45 c 0
 29 13 0 83 0 164 c 2
 0 1147 l 2
 0 1228 29 1297 87 1355 c 0
 145 1413 214 1442 295 1442 c 2
 1278 1442 l 2
715 655 m 0
 715 715 693 767 651 809 c 0
 609 851 558 872 498 872 c 0
 438 872 386 851 344 809 c 0
 302 767 281 715 281 655 c 0
 281 595 302 544 344 502 c 0
 386 460 438 438 498 438 c 0
 558 438 609 460 651 502 c 0
 693 544 715 595 715 655 c 0
1292 655 m 0
 1292 715 1271 767 1229 809 c 0
 1187 851 1135 872 1075 872 c 0
 1015 872 964 851 922 809 c 0
 880 767 858 715 858 655 c 0
 858 595 880 544 922 502 c 0
 964 460 1015 438 1075 438 c 0
 1135 438 1187 460 1229 502 c 0
 1271 544 1292 595 1292 655 c 0
EndSplineSet
Validated: 1
EndChar

StartChar: uniF171
Encoding: 277 61809 21
Width: 1439
VWidth: 1832
Flags: HW
HStem: -180 346<511 929>
LayerCount: 2
Fore
SplineSet
835 693 m 1
 840 650 823 616 783 590 c 0
 743 564 705 562 669 584 c 1
 642 596 624 615 614 643 c 0
 604 671 603 699 613 727 c 0
 623 755 641 774 667 786 c 1
 692 798 716 803 741 799 c 0
 766 795 787 782 806 762 c 0
 825 742 835 719 835 693 c 1
948 715 m 1
 938 788 901 844 833 883 c 0
 765 922 698 926 631 896 c 0
 588 877 554 846 528 805 c 0
 502 764 491 720 493 673 c 0
 496 611 522 558 572 514 c 0
 622 470 678 452 741 457 c 0
 803 462 855 491 897 543 c 0
 939 595 956 652 948 715 c 1
1193 1270 m 1
 1179 1288 1161 1303 1136 1315 c 0
 1111 1327 1091 1335 1076 1338 c 0
 1061 1341 1037 1346 1004 1351 c 0
 805 1383 612 1382 424 1349 c 0
 395 1344 372 1339 356 1336 c 0
 340 1333 322 1326 300 1314 c 0
 278 1302 261 1288 249 1270 c 1
 269 1251 296 1235 327 1223 c 0
 358 1211 383 1204 402 1201 c 0
 421 1198 451 1194 492 1189 c 0
 648 1169 800 1169 950 1188 c 0
 993 1193 1024 1197 1042 1200 c 0
 1060 1203 1085 1210 1116 1222 c 0
 1147 1234 1173 1250 1193 1270 c 1
1251 210 m 1
 1246 192 1240 166 1235 132 c 0
 1230 98 1225 69 1221 46 c 0
 1217 23 1207 -1 1192 -26 c 0
 1177 -51 1158 -70 1133 -84 c 0
 1074 -117 1009 -141 938 -157 c 0
 867 -173 799 -181 732 -180 c 0
 665 -179 595 -173 525 -161 c 0
 494 -156 466 -149 442 -142 c 0
 418 -135 392 -127 364 -115 c 0
 336 -103 311 -88 289 -70 c 0
 267 -52 250 -31 236 -7 c 1
 219 59 199 158 177 292 c 1
 183 308 l 1
 202 317 l 1
 354 216 526 166 720 166 c 0
 914 166 1087 216 1240 317 c 1
 1254 313 1263 306 1265 294 c 0
 1267 282 1265 267 1260 248 c 0
 1255 229 1251 216 1251 210 c 1
1437 1194 m 1
 1419 1080 1381 856 1323 523 c 0
 1320 503 1310 484 1295 466 c 0
 1280 448 1266 435 1251 425 c 0
 1236 415 1218 405 1195 393 c 0
 1023 307 814 277 570 303 c 0
 401 321 267 369 167 445 c 0
 157 453 148 463 141 473 c 0
 134 483 127 494 123 508 c 0
 119 522 116 534 114 543 c 0
 112 552 110 566 108 584 c 0
 106 602 103 614 102 620 c 0
 96 654 87 705 75 773 c 0
 63 841 54 896 47 938 c 0
 40 980 32 1031 23 1090 c 0
 14 1149 6 1202 0 1251 c 1
 2 1269 8 1287 18 1302 c 0
 28 1317 38 1329 50 1339 c 0
 62 1349 77 1360 96 1370 c 0
 115 1380 131 1388 143 1393 c 0
 155 1398 173 1404 193 1412 c 0
 278 1443 385 1466 513 1478 c 0
 772 1503 1002 1485 1205 1426 c 0
 1311 1395 1384 1354 1425 1302 c 0
 1436 1288 1442 1271 1442 1249 c 0
 1442 1227 1441 1210 1437 1194 c 1
EndSplineSet
Validated: 33
EndChar

StartChar: uniF172
Encoding: 278 61810 22
Width: 1570
VWidth: 1832
Flags: HW
HStem: 1049 97<489 674 892 1087>
VStem: 622 83<618 735>
LayerCount: 2
Fore
SplineSet
868 682 m 1
 868 711 854 734 826 750 c 0
 798 766 773 766 748 751 c 1
 719 737 705 712 705 676 c 0
 705 640 720 616 749 604 c 1
 776 588 802 590 831 608 c 0
 860 626 872 651 868 682 c 1
950 698 m 0
 955 653 943 612 913 574 c 0
 883 536 846 516 801 512 c 0
 756 508 715 522 679 553 c 0
 643 584 624 623 622 669 c 0
 621 702 629 734 648 764 c 0
 667 794 691 815 722 829 c 0
 770 851 818 847 867 819 c 0
 916 791 943 751 950 698 c 0
1126 1099 m 1
 1112 1085 1095 1073 1072 1064 c 0
 1049 1055 1030 1050 1017 1048 c 0
 1004 1046 982 1042 952 1039 c 0
 846 1025 736 1025 621 1039 c 0
 591 1043 569 1047 556 1049 c 0
 543 1051 525 1056 502 1065 c 0
 479 1074 460 1085 446 1099 c 1
 455 1112 467 1122 483 1130 c 0
 499 1138 512 1144 524 1146 c 0
 536 1148 552 1152 572 1155 c 0
 707 1179 847 1179 990 1156 c 0
 1013 1153 1030 1149 1042 1147 c 0
 1054 1145 1069 1139 1086 1130 c 0
 1103 1121 1116 1112 1126 1099 c 1
1169 335 m 1
 1169 340 1171 349 1175 362 c 0
 1179 375 1180 386 1178 395 c 0
 1176 404 1170 409 1160 412 c 1
 1050 340 925 303 786 303 c 0
 647 303 523 340 412 412 c 1
 399 406 l 1
 394 393 l 1
 412 288 426 216 436 178 c 1
 468 123 539 86 645 68 c 1
 815 37 961 54 1083 122 c 0
 1106 135 1124 153 1134 175 c 0
 1144 197 1152 226 1157 262 c 0
 1162 298 1166 323 1169 335 c 1
1303 1044 m 0
 1309 1080 1306 1106 1294 1121 c 0
 1265 1159 1212 1188 1136 1211 c 0
 989 1254 822 1266 637 1248 c 1
 547 1240 469 1224 406 1201 c 1
 380 1191 360 1183 345 1176 c 0
 330 1169 313 1157 296 1141 c 0
 279 1125 269 1105 266 1085 c 1
 271 1039 278 992 286 944 c 0
 294 896 303 838 315 769 c 0
 327 700 336 654 340 629 c 0
 341 626 342 615 345 597 c 0
 348 579 350 567 352 560 c 0
 354 553 359 544 365 532 c 0
 371 520 378 512 387 504 c 0
 459 449 556 415 678 401 c 0
 855 382 1004 404 1128 466 c 0
 1144 475 1158 482 1169 489 c 0
 1180 496 1190 506 1201 519 c 0
 1212 532 1218 546 1221 560 c 0
 1254 742 1281 903 1303 1044 c 0
1573 1147 m 2
 1573 164 l 2
 1573 83 1544 13 1486 -45 c 0
 1428 -103 1359 -131 1278 -131 c 2
 295 -131 l 2
 214 -131 145 -103 87 -45 c 0
 29 13 0 83 0 164 c 2
 0 1147 l 2
 0 1228 29 1297 87 1355 c 0
 145 1413 214 1442 295 1442 c 2
 1278 1442 l 2
 1359 1442 1428 1413 1486 1355 c 0
 1544 1297 1573 1228 1573 1147 c 2
EndSplineSet
Validated: 33
EndChar

StartChar: uniF173
Encoding: 279 61811 23
Width: 1046
VWidth: 1832
Flags: HW
HStem: -131 256<653 878> 798 247<624 996>
VStem: 254 370<204 798>
LayerCount: 2
Fore
SplineSet
399 1442 m 1
 624 1442 l 1
 624 1044 l 1
 996 1044 l 1
 996 798 l 1
 624 798 l 1
 624 394 l 2
 624 301 628 243 638 218 c 1
 647 193 664 173 691 157 c 1
 725 135 765 125 811 125 c 0
 891 125 970 151 1049 203 c 1
 1049 -45 l 1
 979 -78 918 -100 866 -112 c 1
 813 -125 755 -131 689 -131 c 0
 617 -131 554 -121 499 -103 c 0
 446 -86 398 -61 357 -27 c 1
 317 8 290 44 276 81 c 0
 261 118 254 173 254 246 c 2
 254 798 l 1
 80 798 l 1
 80 1020 l 1
 142 1040 195 1069 239 1106 c 0
 283 1144 317 1188 344 1241 c 0
 371 1294 389 1361 399 1442 c 1
EndSplineSet
Validated: 1
EndChar

StartChar: uniF174
Encoding: 280 61812 24
Width: 1570
VWidth: 1832
Flags: HW
HStem: -131 197<733 1041> 258 504<884 1080> 1245 197<659 830>
VStem: 0 553<214 762> 830 742<316 762 947 1243>
LayerCount: 2
Fore
SplineSet
1150 130 m 1
 1150 315 l 1
 1090 277 1031 258 972 258 c 0
 937 258 907 266 882 282 c 0
 862 294 849 309 842 328 c 0
 834 348 830 392 830 460 c 2
 830 762 l 1
 1111 762 l 1
 1111 947 l 1
 830 947 l 1
 830 1245 l 1
 663 1245 l 1
 655 1184 642 1134 622 1095 c 0
 602 1056 575 1022 542 993 c 0
 509 966 469 945 423 929 c 1
 423 762 l 1
 553 762 l 1
 553 348 l 2
 553 295 558 253 570 224 c 0
 582 195 602 169 631 144 c 0
 660 119 695 100 737 86 c 0
 779 72 828 66 881 66 c 0
 927 66 971 70 1013 80 c 0
 1052 89 1097 105 1150 130 c 1
1573 1147 m 2
 1573 164 l 2
 1573 83 1544 13 1486 -45 c 0
 1428 -103 1359 -131 1278 -131 c 2
 295 -131 l 2
 214 -131 145 -103 87 -45 c 0
 29 13 0 83 0 164 c 2
 0 1147 l 2
 0 1228 29 1297 87 1355 c 0
 145 1413 214 1442 295 1442 c 2
 1278 1442 l 2
 1359 1442 1428 1413 1486 1355 c 0
 1544 1297 1573 1228 1573 1147 c 2
EndSplineSet
Validated: 1
EndChar

StartChar: uniF179
Encoding: 281 61817 25
Width: 1439
VWidth: 1832
Flags: HW
HStem: -131 1311<371 555> -128 1316<928 1123> -62 1181<625 836>
VStem: 0 1194<553 813>
LayerCount: 2
Fore
SplineSet
1426 329 m 1x50
 1399 244 1357 158 1300 73 c 1
 1212 -61 1124 -128 1037 -128 c 0x50
 1004 -128 956 -117 894 -95 c 1
 835 -73 783 -62 739 -62 c 0x30
 697 -62 649 -73 594 -96 c 0
 539 -119 494 -131 459 -131 c 0
 355 -131 253 -43 151 134 c 1
 51 312 0 484 0 649 c 0
 0 805 39 932 116 1032 c 0
 192 1130 290 1180 407 1180 c 0x90
 456 1180 516 1169 588 1149 c 0
 659 1129 706 1118 729 1118 c 0x30
 760 1118 809 1130 876 1153 c 1
 946 1176 1005 1188 1053 1188 c 0
 1134 1188 1208 1165 1271 1121 c 0
 1306 1096 1342 1063 1377 1019 c 1
 1323 973 1285 933 1261 898 c 0
 1217 835 1194 763 1194 686 c 0
 1194 601 1218 526 1265 458 c 0
 1312 390 1365 347 1426 329 c 1x50
1041 1530 m 0
 1041 1488 1032 1442 1012 1391 c 0
 992 1340 959 1292 916 1249 c 0
 879 1212 843 1188 806 1176 c 1
 781 1168 745 1162 699 1158 c 1
 701 1260 728 1347 779 1421 c 0
 830 1494 915 1545 1035 1573 c 1
 1036 1571 1037 1567 1038 1562 c 0
 1039 1557 1039 1552 1040 1550 c 1
 1040 1547 1041 1544 1041 1540 c 0
 1041 1536 1041 1533 1041 1530 c 0
EndSplineSet
Validated: 1
EndChar

StartChar: uniF17A
Encoding: 282 61818 26
Width: 1701
VWidth: 1832
Flags: HW
VStem: 0 698<-28 543 629 1207> 775 929<-134 543 629 1314>
LayerCount: 2
Fore
SplineSet
698 543 m 1
 698 -124 l 1
 0 -28 l 1
 0 543 l 1
 698 543 l 1
698 1304 m 1
 698 629 l 1
 0 629 l 1
 0 1207 l 1
 698 1304 l 1
1704 543 m 1
 1704 -262 l 1
 775 -134 l 1
 775 543 l 1
 1704 543 l 1
1704 1442 m 1
 1704 629 l 1
 775 629 l 1
 775 1314 l 1
 1704 1442 l 1
EndSplineSet
Validated: 1
EndChar

StartChar: uniF17B
Encoding: 283 61819 27
Width: 1439
VWidth: 1832
Flags: HW
HStem: 907 171<478 533 901 964>
VStem: 0 210<280 849> 251 940<121 870 907 1050> 440 210<-221 76> 792 211<-221 76> 1232 210<280 850>
LayerCount: 2
Fore
SplineSet
505 1078 m 0xc4
 516 1078 526 1082 534 1090 c 0
 542 1098 545 1107 545 1118 c 0
 545 1129 542 1138 534 1146 c 0
 526 1154 516 1158 505 1158 c 0
 494 1158 485 1154 477 1146 c 0
 469 1138 466 1129 466 1118 c 0
 466 1107 469 1098 477 1090 c 0
 485 1082 494 1078 505 1078 c 0xc4
937 1078 m 0
 948 1078 957 1082 965 1090 c 0
 973 1098 976 1107 976 1118 c 0
 976 1129 973 1138 965 1146 c 0
 957 1154 948 1158 937 1158 c 0
 926 1158 917 1154 909 1146 c 0
 901 1138 897 1129 897 1118 c 0
 897 1107 901 1098 909 1090 c 0
 917 1082 926 1078 937 1078 c 0
105 890 m 0
 134 890 159 879 179 859 c 0
 199 839 210 814 210 785 c 2
 210 345 l 2
 210 316 200 290 180 270 c 0
 160 250 134 240 105 240 c 0
 76 240 51 250 31 270 c 0
 11 290 0 316 0 345 c 2
 0 785 l 2
 0 814 11 839 31 859 c 0
 51 879 76 890 105 890 c 0
1191 870 m 1xe4
 1191 188 l 2xe4
 1191 157 1180 131 1158 109 c 0
 1136 87 1110 76 1079 76 c 2
 1002 76 l 1
 1002 -157 l 2
 1002 -186 992 -211 972 -231 c 0
 952 -251 926 -262 897 -262 c 0
 868 -262 842 -251 822 -231 c 0
 802 -211 792 -186 792 -157 c 2
 792 76 l 1
 650 76 l 1
 650 -157 l 2
 650 -186 640 -211 620 -231 c 0
 600 -251 574 -262 545 -262 c 0
 516 -262 491 -251 471 -231 c 0
 451 -211 440 -186 440 -157 c 2xdc
 439 76 l 1
 364 76 l 2
 333 76 306 87 284 109 c 0
 262 131 251 157 251 188 c 2
 251 870 l 1
 1191 870 l 1xe4
953 1285 m 1
 1026 1247 1084 1195 1128 1128 c 0
 1172 1061 1194 987 1194 907 c 1
 247 907 l 1
 247 987 268 1061 312 1128 c 0
 356 1195 414 1247 488 1285 c 1
 416 1419 l 2
 411 1428 413 1435 421 1440 c 1
 430 1444 436 1442 441 1434 c 2
 515 1298 l 1
 580 1327 649 1341 721 1341 c 0
 793 1341 862 1327 927 1298 c 1
 1000 1434 l 2
 1005 1442 1012 1444 1021 1440 c 1
 1029 1435 1031 1428 1026 1419 c 2
 953 1285 l 1
1442 785 m 2
 1442 345 l 2
 1442 316 1431 290 1411 270 c 0
 1391 250 1365 240 1336 240 c 0
 1307 240 1283 250 1263 270 c 0
 1243 290 1232 316 1232 345 c 2
 1232 785 l 2
 1232 814 1243 840 1263 860 c 0
 1283 880 1307 890 1336 890 c 0
 1365 890 1391 880 1411 860 c 0
 1431 840 1442 814 1442 785 c 2
EndSplineSet
Validated: 1
EndChar

StartChar: uniF17C
Encoding: 284 61820 28
Width: 1570
VWidth: 1832
Flags: HW
HStem: -257 42<388 538> 146 24<41 147> 1132 20<650 663>
VStem: 37 33<-45 63> 330 73<358 511> 513 49<1128 1283> 571 42<-162 -59> 641 19<1177 1222> 684 81<1172 1277> 800 78<1193 1225> 943 133<1133 1274> 983 45<-2 54> 1126 90<371 581> 1401 16<175 220>
LayerCount: 2
Fore
SplineSet
679 1152 m 1xffcc
 671 1151 666 1147 663 1141 c 0
 660 1135 657 1132 654 1132 c 0
 651 1131 649 1133 649 1137 c 0
 649 1145 656 1150 669 1152 c 1
 679 1152 l 1xffcc
768 1138 m 0
 765 1137 761 1139 756 1144 c 0
 751 1149 745 1151 738 1149 c 1
 754 1157 766 1156 771 1147 c 0
 773 1143 772 1140 768 1138 c 0
409 700 m 1
 406 701 403 700 402 697 c 0
 401 694 400 691 398 685 c 0
 396 679 394 674 392 671 c 0
 390 668 387 662 382 657 c 1
 377 650 377 646 381 645 c 0
 384 644 388 647 394 652 c 0
 400 657 404 664 407 671 c 0
 408 673 408 675 409 678 c 0
 410 681 410 683 411 684 c 0
 412 685 412 687 412 689 c 0
 412 691 413 692 413 693 c 2
 413 696 l 1
 412 698 l 1
 409 700 l 1
1284 333 m 1
 1284 345 1266 360 1228 376 c 1
 1231 386 1233 395 1235 404 c 0
 1237 413 1240 422 1241 431 c 0
 1242 440 1243 448 1244 453 c 0
 1245 458 1245 466 1244 476 c 0
 1243 486 1243 493 1243 496 c 0
 1243 499 1242 506 1240 518 c 0
 1238 530 1235 537 1235 539 c 0
 1235 541 1233 550 1230 565 c 0
 1227 580 1226 589 1225 592 c 0
 1218 625 1202 659 1177 697 c 0
 1152 735 1127 760 1103 774 c 1
 1119 760 1138 732 1161 689 c 0
 1220 578 1240 483 1217 404 c 0
 1209 377 1192 362 1165 361 c 1
 1143 358 1131 365 1126 380 c 0
 1121 395 1118 424 1118 466 c 0
 1118 508 1114 544 1106 575 c 0
 1100 602 1093 626 1086 646 c 0
 1079 666 1072 682 1066 693 c 0
 1060 704 1054 712 1050 718 c 0
 1046 724 1041 729 1037 733 c 0
 1033 737 1030 739 1029 740 c 0
 1019 782 1009 818 997 846 c 0
 985 874 976 893 967 903 c 0
 958 913 951 925 943 937 c 0
 935 949 931 963 928 978 c 0
 925 992 927 1011 934 1033 c 0
 941 1055 942 1071 938 1083 c 0
 934 1095 920 1104 893 1109 c 0
 883 1111 867 1117 847 1127 c 0
 827 1137 815 1143 811 1144 c 0
 806 1145 802 1153 800 1170 c 0
 798 1187 800 1205 808 1223 c 0
 816 1241 828 1249 845 1250 c 1
 870 1252 887 1243 897 1220 c 0
 907 1197 908 1177 901 1160 c 1
 893 1147 893 1138 899 1133 c 0
 905 1128 916 1128 930 1133 c 0
 939 1136 943 1147 943 1169 c 2
 943 1207 l 1xffec
 940 1227 935 1244 929 1258 c 0
 923 1272 917 1283 908 1290 c 0
 899 1297 892 1302 884 1305 c 0
 876 1308 867 1311 856 1313 c 1
 783 1308 753 1262 765 1176 c 1
 765 1166 765 1160 764 1160 c 0
 758 1166 748 1170 734 1171 c 0
 720 1172 709 1171 700 1170 c 0
 691 1169 686 1171 684 1176 c 1
 685 1215 680 1245 668 1268 c 0
 656 1291 641 1302 622 1303 c 0
 604 1304 589 1293 579 1274 c 0
 569 1255 563 1235 562 1213 c 0
 561 1203 563 1191 566 1176 c 0
 569 1161 573 1148 579 1137 c 0
 585 1126 590 1122 595 1123 c 0
 602 1125 607 1130 611 1138 c 0
 614 1144 612 1147 604 1146 c 0
 599 1146 594 1151 588 1161 c 0
 582 1171 580 1182 579 1195 c 0
 578 1210 581 1223 588 1233 c 0
 595 1243 607 1248 623 1247 c 0
 635 1247 643 1240 650 1226 c 0
 657 1212 660 1198 660 1186 c 0
 660 1174 659 1166 658 1163 c 1
 643 1153 633 1144 627 1134 c 0
 622 1126 612 1118 599 1110 c 0
 586 1102 579 1098 578 1097 c 0
 569 1087 564 1078 562 1069 c 0
 560 1060 562 1054 569 1051 c 0
 579 1046 587 1039 595 1031 c 0
 603 1023 608 1016 611 1011 c 0
 614 1006 621 1002 630 998 c 0
 639 994 652 992 667 991 c 0
 699 990 733 995 771 1007 c 0
 772 1008 781 1010 795 1014 c 0
 809 1018 821 1022 830 1025 c 0
 839 1028 849 1032 860 1038 c 0
 871 1044 879 1050 882 1056 c 0
 888 1066 894 1068 902 1064 c 0
 905 1062 908 1059 909 1055 c 0
 910 1051 909 1047 906 1043 c 0
 903 1039 897 1035 889 1033 c 0
 875 1029 856 1022 831 1011 c 0
 806 1000 790 994 784 991 c 0
 754 978 731 971 713 968 c 1
 696 965 669 965 632 970 c 0
 625 971 622 971 623 968 c 0
 624 965 629 958 640 948 c 0
 657 932 680 925 709 926 c 0
 721 927 732 929 745 933 c 0
 758 937 770 942 782 947 c 0
 794 952 806 959 817 965 c 0
 828 971 838 978 847 983 c 0
 856 988 864 992 872 995 c 0
 880 998 886 998 890 997 c 0
 894 996 898 992 899 986 c 0
 899 985 899 984 898 982 c 0
 897 980 896 978 894 976 c 0
 892 974 890 973 888 972 c 0
 886 971 883 969 879 967 c 0
 875 965 872 963 870 962 c 0
 868 961 864 959 860 957 c 0
 856 955 852 953 850 952 c 0
 831 942 808 927 781 907 c 0
 754 887 731 872 713 863 c 0
 695 854 678 854 663 862 c 0
 649 870 627 895 598 937 c 0
 583 959 574 965 572 959 c 0
 571 957 571 954 571 949 c 0
 571 932 566 913 556 891 c 0
 546 869 536 851 526 835 c 0
 516 819 508 798 504 775 c 0
 500 752 504 731 516 711 c 1
 500 707 479 675 452 618 c 0
 425 561 408 513 403 474 c 0
 402 462 402 438 402 403 c 0
 402 368 400 348 396 343 c 1
 391 327 381 326 367 340 c 0
 345 362 333 393 330 436 c 0
 329 455 330 475 334 494 c 0
 337 507 336 513 333 512 c 1
 329 507 l 1
 304 463 308 406 339 337 c 0
 342 329 351 319 365 308 c 0
 379 297 386 291 389 288 c 0
 403 272 439 241 496 195 c 0
 553 149 585 123 591 117 c 0
 602 107 608 94 609 78 c 0
 610 62 605 48 594 34 c 0
 583 20 568 12 548 10 c 1
 553 0 564 -15 578 -35 c 0
 592 -55 601 -74 606 -91 c 0
 611 -108 613 -132 613 -163 c 1
 644 -147 648 -115 621 -69 c 0
 618 -64 614 -57 610 -52 c 0
 606 -47 602 -43 600 -40 c 0
 598 -37 597 -35 598 -34 c 0
 600 -31 604 -27 611 -24 c 0
 618 -21 625 -22 632 -27 c 1
 663 -62 720 -74 802 -63 c 1
 893 -53 953 -23 983 26 c 0
 999 52 1010 61 1018 56 c 1
 1026 52 1029 34 1028 3 c 0xffdc
 1027 -14 1020 -45 1005 -91 c 1
 999 -107 996 -120 998 -130 c 0
 1000 -140 1009 -144 1023 -145 c 1
 1025 -132 1030 -107 1038 -67 c 0
 1046 -27 1051 4 1052 26 c 0
 1053 40 1052 65 1046 101 c 0
 1040 137 1036 170 1037 200 c 0
 1038 230 1046 254 1061 272 c 0
 1071 284 1088 291 1113 291 c 1
 1114 316 1125 334 1148 345 c 0
 1171 356 1196 360 1223 356 c 0
 1250 352 1270 345 1284 333 c 1
641 1180 m 0
 643 1192 642 1201 638 1210 c 0
 634 1219 631 1225 627 1226 c 0
 621 1227 617 1225 617 1219 c 1
 618 1216 621 1213 623 1212 c 1
 630 1212 632 1207 630 1197 c 0
 628 1183 630 1177 638 1177 c 0
 640 1177 641 1178 641 1180 c 0
1070 978 m 0
 1069 983 1066 988 1063 990 c 0
 1060 992 1056 994 1050 995 c 0
 1044 996 1039 997 1035 1000 c 0
 1032 1002 1029 1006 1026 1009 c 0
 1023 1012 1020 1015 1018 1017 c 0
 1016 1019 1015 1021 1013 1023 c 0
 1011 1025 1010 1028 1009 1028 c 0
 1008 1028 1007 1027 1005 1026 c 0
 995 1015 998 1001 1012 982 c 0
 1026 963 1040 952 1052 949 c 0
 1058 948 1062 951 1066 957 c 0
 1070 963 1071 970 1070 978 c 0
888 1196 m 1
 888 1204 886 1211 883 1217 c 0
 880 1223 875 1226 871 1229 c 0
 867 1232 864 1233 862 1232 c 0
 852 1231 850 1229 855 1225 c 1
 859 1223 l 1
 869 1220 875 1209 878 1191 c 0
 878 1189 881 1190 886 1193 c 1
 888 1196 l 1
943 1435 m 0
 943 1436 943 1438 941 1440 c 0
 939 1442 935 1444 931 1447 c 0
 927 1450 924 1452 922 1453 c 0
 912 1463 903 1468 897 1468 c 0
 891 1467 887 1465 885 1461 c 0
 883 1457 883 1451 884 1447 c 0
 885 1443 885 1439 884 1435 c 0
 883 1432 881 1428 878 1424 c 0
 875 1420 872 1417 871 1415 c 0
 870 1413 871 1410 874 1406 c 1
 877 1404 880 1404 883 1406 c 0
 886 1408 889 1411 894 1415 c 0
 899 1419 904 1422 909 1424 c 0
 910 1425 914 1425 919 1425 c 0
 924 1425 929 1426 934 1427 c 0
 939 1428 942 1432 943 1435 c 0
1522 61 m 0
 1536 53 1545 45 1553 36 c 0
 1561 27 1565 20 1566 12 c 0
 1567 4 1565 -3 1563 -11 c 0
 1561 -19 1555 -26 1547 -34 c 0
 1539 -42 1531 -48 1523 -54 c 0
 1515 -60 1505 -66 1492 -73 c 0
 1479 -80 1469 -86 1460 -90 c 0
 1451 -94 1440 -99 1427 -105 c 0
 1414 -111 1405 -116 1400 -119 c 0
 1374 -132 1344 -151 1312 -176 c 0
 1280 -201 1254 -224 1235 -242 c 0
 1223 -253 1200 -260 1165 -262 c 0
 1130 -264 1100 -259 1074 -247 c 0
 1062 -241 1052 -233 1044 -223 c 0
 1036 -213 1030 -205 1027 -197 c 0
 1024 -189 1017 -183 1005 -177 c 0
 993 -171 976 -168 956 -167 c 0
 926 -166 882 -166 823 -166 c 0
 810 -166 791 -166 765 -167 c 0
 739 -168 720 -169 706 -170 c 0
 676 -171 648 -175 624 -185 c 0
 600 -195 581 -205 569 -216 c 0
 557 -227 542 -236 525 -245 c 0
 508 -254 489 -258 470 -257 c 0
 450 -256 412 -245 356 -225 c 0
 300 -205 251 -190 207 -181 c 0
 194 -178 177 -176 155 -172 c 0
 133 -168 115 -164 103 -162 c 0
 91 -160 78 -157 63 -153 c 0
 48 -149 37 -144 29 -138 c 0
 21 -132 14 -126 11 -118 c 0
 4 -102 6 -80 18 -50 c 0
 30 -20 36 -2 37 6 c 0
 38 17 36 31 33 47 c 0
 30 63 26 78 23 91 c 0
 20 104 18 116 18 128 c 0
 18 140 22 150 29 156 c 0
 39 164 58 169 87 170 c 0
 116 171 136 175 148 182 c 0
 168 194 183 206 191 218 c 0
 199 230 204 247 204 270 c 1
 218 220 207 185 171 162 c 0
 149 148 121 143 86 146 c 0
 63 148 48 145 42 136 c 1
 33 126 35 107 47 78 c 0
 48 74 51 67 55 59 c 0
 59 51 61 45 63 41 c 0
 65 37 68 32 69 24 c 0
 70 16 71 9 70 1 c 1
 70 -9 64 -26 52 -49 c 0
 40 -72 36 -88 38 -98 c 0
 40 -110 53 -119 76 -125 c 0
 90 -129 118 -135 162 -144 c 0
 206 -153 240 -160 264 -165 c 0
 280 -169 306 -176 340 -187 c 0
 374 -198 402 -206 424 -211 c 0
 446 -216 465 -217 481 -215 c 0
 510 -211 532 -201 547 -186 c 0
 562 -171 570 -155 571 -137 c 0
 572 -119 569 -99 563 -77 c 0
 557 -55 551 -37 544 -24 c 0
 537 -11 530 1 523 13 c 0
 440 143 383 226 350 261 c 0
 304 312 265 325 234 302 c 0
 226 296 222 301 219 317 c 0
 217 328 216 341 217 356 c 0
 218 376 221 394 227 410 c 0
 233 426 242 442 252 458 c 0
 262 474 269 489 274 501 c 0
 279 515 289 539 302 574 c 0
 315 609 324 636 332 654 c 0
 340 672 349 694 362 717 c 0
 375 740 388 758 402 772 c 1
 477 870 519 937 529 972 c 1
 521 1048 516 1154 513 1289 c 0
 512 1350 520 1402 538 1444 c 0
 556 1486 591 1522 646 1551 c 0
 673 1565 709 1573 753 1573 c 1
 789 1574 825 1569 861 1559 c 0
 897 1549 927 1535 952 1517 c 0
 991 1488 1022 1446 1046 1392 c 0
 1070 1338 1079 1287 1076 1241 c 1
 1073 1176 1083 1103 1107 1022 c 0
 1130 945 1175 871 1243 799 c 0
 1281 759 1315 703 1345 632 c 0
 1375 561 1396 495 1406 436 c 0
 1411 403 1413 374 1411 350 c 0
 1409 326 1405 307 1399 293 c 0
 1393 279 1386 271 1378 270 c 0
 1371 269 1363 263 1354 251 c 0
 1345 239 1336 228 1327 215 c 0
 1318 202 1303 190 1285 180 c 0
 1267 170 1246 165 1223 166 c 0
 1211 167 1199 168 1190 171 c 0
 1181 174 1173 179 1167 185 c 0
 1161 191 1157 197 1154 201 c 0
 1151 205 1147 212 1142 222 c 0
 1137 232 1134 239 1133 242 c 0
 1118 267 1104 277 1091 272 c 0
 1078 267 1068 251 1062 222 c 0
 1056 193 1058 161 1069 123 c 0
 1083 75 1083 8 1070 -77 c 0
 1063 -121 1070 -156 1089 -180 c 0
 1108 -204 1132 -216 1163 -214 c 0
 1194 -212 1223 -200 1250 -177 c 0
 1290 -144 1320 -121 1342 -109 c 0
 1364 -97 1398 -83 1448 -66 c 0
 1484 -54 1511 -41 1527 -28 c 0
 1543 -15 1550 -4 1546 7 c 0
 1542 18 1533 27 1520 36 c 0
 1507 45 1489 52 1467 60 c 0
 1444 68 1428 85 1417 110 c 0
 1406 135 1400 160 1401 184 c 0
 1402 208 1407 224 1417 232 c 1
 1418 210 1420 192 1425 175 c 0
 1430 158 1435 143 1440 133 c 0
 1445 123 1452 113 1461 104 c 0
 1470 95 1478 88 1483 84 c 0
 1488 80 1496 76 1505 71 c 0
 1514 66 1520 62 1522 61 c 0
EndSplineSet
Validated: 33
EndChar

StartChar: uniF17E
Encoding: 285 61822 29
Width: 1570
VWidth: 1832
Flags: HW
HStem: -66 246<625 951> 1140 237<622 948>
VStem: 0 385<834 1103> 1201 372<208 501> 1201 306<464 705>
LayerCount: 2
Fore
SplineSet
1201 484 m 0xf0
 1201 518 1194 550 1181 578 c 0
 1168 606 1152 630 1132 648 c 0
 1112 666 1087 683 1057 698 c 0
 1027 713 998 725 972 733 c 0
 946 741 916 749 883 757 c 2
 776 781 l 2
 756 786 741 790 731 792 c 0
 721 794 709 799 695 804 c 0
 681 809 671 815 665 820 c 0
 659 825 653 833 648 842 c 0
 643 851 640 860 640 872 c 0
 640 925 689 951 787 951 c 0
 816 951 843 947 866 939 c 0
 889 931 908 921 922 910 c 0
 936 899 949 888 961 876 c 0
 973 864 986 854 1001 846 c 0
 1016 838 1033 834 1051 834 c 0
 1083 834 1109 844 1128 866 c 0
 1147 888 1157 914 1157 945 c 0
 1157 983 1138 1017 1100 1047 c 0
 1062 1077 1013 1100 954 1116 c 0
 895 1132 834 1140 768 1140 c 0
 722 1140 677 1135 633 1124 c 0
 589 1113 548 1098 510 1076 c 0
 472 1054 442 1025 419 987 c 0
 396 949 385 905 385 855 c 0
 385 813 391 777 404 746 c 0
 417 715 437 689 462 669 c 0
 487 649 515 631 544 618 c 0
 573 605 608 596 649 586 c 2
 799 549 l 2
 860 534 898 522 913 512 c 0
 935 498 946 478 946 451 c 0
 946 424 932 402 905 385 c 0
 878 368 842 358 798 358 c 0
 763 358 733 364 705 375 c 0
 677 386 654 399 637 414 c 0
 620 429 605 445 591 460 c 0
 577 475 561 489 544 500 c 0
 527 511 508 516 488 516 c 0
 454 516 428 505 411 485 c 0
 394 465 385 440 385 409 c 0
 385 346 427 292 510 247 c 0
 593 202 693 180 808 180 c 0
 858 180 905 186 951 199 c 0
 997 212 1039 230 1077 254 c 0
 1115 278 1144 310 1167 350 c 0
 1190 390 1201 434 1201 484 c 0xf0
1573 262 m 0
 1573 153 1535 61 1458 -16 c 0
 1381 -93 1289 -131 1180 -131 c 0
 1091 -131 1011 -104 940 -49 c 1
 887 -60 836 -66 786 -66 c 0
 688 -66 595 -47 506 -9 c 0
 417 29 341 80 276 145 c 0
 211 210 160 286 122 375 c 0
 84 464 66 557 66 655 c 0
 66 705 71 756 82 809 c 1
 27 880 0 960 0 1049 c 0
 0 1158 38 1250 115 1327 c 0
 192 1404 284 1442 393 1442 c 0
 482 1442 562 1415 633 1360 c 1
 686 1371 736 1376 786 1376 c 0
 884 1376 977 1357 1066 1319 c 0
 1155 1281 1232 1231 1297 1166 c 0
 1362 1101 1412 1024 1450 935 c 0
 1488 846 1507 753 1507 655 c 0xe8
 1507 605 1502 555 1491 502 c 1
 1546 431 1573 351 1573 262 c 0
EndSplineSet
Validated: 1
EndChar

StartChar: uniE009
Encoding: 286 57353 30
Width: 0
VWidth: 522
Flags: HW
LayerCount: 2
Fore
SplineSet
0 1475 m 1
 1573 -98 l 1
 0 -98 l 1
 0 1475 l 1
EndSplineSet
Validated: 1
EndChar

StartChar: uniE001
Encoding: 287 57345 31
Width: 1572
VWidth: 522
Flags: HW
HStem: -98 393<108 286> 1185 290<0 193>
VStem: 1 393<9 188> 1294 279<-98 101>
LayerCount: 2
Fore
SplineSet
1294 -98 m 1
 1293 607 678 1184 0 1185 c 1
 0 1475 l 1
 831 1475 1573 767 1573 -98 c 1
 1294 -98 l 1
1056 -98 m 1
 777 -98 l 1
 778 75 690 269 551 414 c 0
 413 560 167 653 1 652 c 1
 1 941 l 1
 520 930 1045 440 1056 -98 c 1
197 295 m 0
 305 295 394 207 394 98 c 0
 394 -11 305 -98 197 -98 c 0
 89 -98 1 -11 1 98 c 0
 1 207 89 295 197 295 c 0
EndSplineSet
Validated: 33
EndChar

StartChar: uniE002
Encoding: 288 57346 32
Width: 1572
VWidth: 522
Flags: HW
LayerCount: 2
Fore
SplineSet
1573 1176 m 1
 1515 1150 1453 1133 1388 1125 c 1
 1455 1165 1505 1229 1529 1304 c 1
 1467 1267 1398 1239 1324 1225 c 1
 1265 1288 1182 1327 1089 1327 c 0
 911 1327 766 1183 766 1005 c 0
 766 980 769 955 775 931 c 1
 507 944 269 1073 110 1268 c 1
 82 1220 66 1165 66 1106 c 0
 66 994 122 895 209 837 c 1
 156 839 107 854 63 878 c 1
 63 877 63 875 63 874 c 0
 63 718 174 587 322 557 c 1
 295 550 266 546 237 546 c 0
 215 546 196 548 176 552 c 1
 217 424 337 331 478 328 c 1
 368 241 228 189 77 189 c 0
 51 189 25 191 0 194 c 1
 143 102 313 49 495 49 c 0
 1089 49 1413 541 1413 967 c 0
 1413 981 1413 995 1412 1009 c 1
 1475 1054 1530 1111 1573 1176 c 1
EndSplineSet
Validated: 9
EndChar

StartChar: uniE006
Encoding: 289 57350 33
Width: 1570
VWidth: 522
Flags: HW
HStem: -98 345<195 478> 298 253<139 333> 1365 110<213 343>
VStem: 0 306<366 542> 771 114<983 1077>
LayerCount: 2
Fore
SplineSet
1 139 m 1
 1 143 0 146 0 150 c 1
 0 146 1 143 1 139 c 1
362 606 m 0
 503 602 598 749 574 934 c 0
 550 1119 415 1268 274 1272 c 0
 133 1276 38 1134 62 949 c 0
 86 764 221 610 362 606 c 0
1573 1081 m 1
 1573 1212 l 2
 1573 1356 1455 1475 1311 1475 c 2
 262 1475 l 2
 120 1475 4 1361 0 1220 c 1
 90 1299 215 1365 343 1365 c 0
 480 1365 891 1365 891 1365 c 1
 768 1261 l 1
 594 1261 l 1
 709 1217 771 1083 771 945 c 0
 771 829 707 730 616 659 c 0
 527 590 511 562 511 503 c 0
 511 453 605 367 655 332 c 0
 800 230 847 135 847 -23 c 0
 847 -48 844 -73 838 -98 c 1
 1311 -98 l 2
 1455 -98 1573 20 1573 164 c 2
 1573 983 l 1
 1278 983 l 1
 1278 688 l 1
 1180 688 l 1
 1180 983 l 1
 885 983 l 1
 885 1081 l 1
 1180 1081 l 1
 1180 1376 l 1
 1278 1376 l 1
 1278 1081 l 1
 1573 1081 l 1
286 298 m 0
 319 298 349 299 381 299 c 1
 339 339 306 389 306 450 c 0
 306 486 318 521 334 552 c 1
 317 551 300 551 283 551 c 0
 169 551 72 588 0 649 c 1
 0 546 l 1
 0 236 l 1
 82 275 180 298 286 298 c 0
5 112 m 1
 3 120 2 128 1 137 c 1
 2 128 3 120 5 112 c 1
700 11 m 0
 677 101 594 146 480 225 c 1
 438 238 393 246 344 247 c 0
 206 248 77 193 5 111 c 1
 29 -8 136 -98 262 -98 c 2
 702 -98 l 1
 705 -81 706 -63 706 -45 c 0
 706 -26 704 -7 700 11 c 0
EndSplineSet
Validated: 37
EndChar

StartChar: uniE007
Encoding: 290 57351 34
Width: 1570
VWidth: 522
Flags: HW
HStem: 0 22G<786 1081> 1376 98<957 1106 1311 1370>
VStem: 1375 198<877 913 1212 1314>
LayerCount: 2
Fore
SplineSet
1311 1475 m 6
 262 1475 l 6
 118 1475 0 1356 0 1212 c 6
 0 164 l 6
 0 20 118 -98 262 -98 c 6
 1311 -98 l 6
 1455 -98 1573 20 1573 164 c 6
 1573 1212 l 6
 1573 1356 1455 1475 1311 1475 c 6
1337 688 m 5
 1081 688 l 5
 1081 0 l 5
 786 0 l 5
 786 688 l 5
 644 688 l 5
 644 913 l 5
 786 913 l 5
 786 1059 l 6
 786 1258 872 1376 1106 1376 c 6
 1375 1376 l 5
 1375 1133 l 5
 1155 1133 l 6
 1090 1133 1082 1098 1082 1035 c 6
 1081 913 l 5
 1376 913 l 5
 1337 688 l 5
EndSplineSet
Validated: 9
EndChar
